<svg width="119" height="67" viewBox="0 0 119 67" fill="none" xmlns="http://www.w3.org/2000/svg">
<circle cx="110.476" cy="59.0919" r="7.70763" transform="rotate(-180 110.476 59.0919)" fill="#1C77C3"/>
<circle cx="84.7842" cy="59.0919" r="7.70763" transform="rotate(-180 84.7842 59.0919)" fill="#1C77C3"/>
<circle cx="59.0919" cy="59.0919" r="7.70763" transform="rotate(-180 59.0919 59.0919)" fill="#1C77C3"/>
<circle cx="33.3999" cy="59.0919" r="7.70763" transform="rotate(-180 33.3999 59.0919)" fill="#1C77C3"/>
<circle cx="7.70765" cy="59.0919" r="7.70763" transform="rotate(-180 7.70765 59.0919)" fill="#1C77C3"/>
<circle cx="110.476" cy="33.3998" r="7.70763" transform="rotate(-180 110.476 33.3998)" fill="#1C77C3"/>
<circle cx="84.7842" cy="33.3998" r="7.70763" transform="rotate(-180 84.7842 33.3998)" fill="#1C77C3"/>
<circle cx="59.0919" cy="33.3998" r="7.70763" transform="rotate(-180 59.0919 33.3998)" fill="#1C77C3"/>
<circle cx="33.3999" cy="33.3998" r="7.70763" transform="rotate(-180 33.3999 33.3998)" fill="#1C77C3"/>
<circle cx="7.70765" cy="33.3998" r="7.70763" transform="rotate(-180 7.70765 33.3998)" fill="#1C77C3"/>
<circle cx="59.0919" cy="7.70765" r="7.70763" transform="rotate(-180 59.0919 7.70765)" fill="#1C77C3"/>
<circle cx="33.3999" cy="7.70765" r="7.70763" transform="rotate(-180 33.3999 7.70765)" fill="#1C77C3"/>
<circle cx="7.70765" cy="7.70765" r="7.70763" transform="rotate(-180 7.70765 7.70765)" fill="#1C77C3"/>
</svg>
